<?xml version="1.0" encoding="utf-8"?>
<!-- Svg Vector Icons : http://www.onlinewebfonts.com/icon -->
<!DOCTYPE svg PUBLIC "-//W3C//DTD SVG 1.1//EN" "http://www.w3.org/Graphics/SVG/1.1/DTD/svg11.dtd">
<svg version="1.1" xmlns="http://www.w3.org/2000/svg" xmlns:xlink="http://www.w3.org/1999/xlink" x="0px" y="0px" viewBox="0 0 1000 1000" enable-background="new 0 0 1000 1000" xml:space="preserve">
<metadata> Svg Vector Icons : http://www.onlinewebfonts.com/icon </metadata>
<g><g transform="translate(0.000000,512.000000) scale(0.100000,-0.100000)"><path d="M795,4986.3c-323.3-86.1-575.9-344.4-662-671.5c-44-166.4-44-8224.9,0-8391.3c86.1-331,340.5-587.4,669.6-673.5c99.5-24.9,591.2-28.7,4199.5-28.7c4457.8,0,4178.4-7.7,4404.2,107.1c135.8,68.9,304.2,235.4,376.9,369.3c124.4,235.3,116.7-78.5,116.7,4421.4c0,3608.3-3.8,4100-28.7,4199.5c-86.1,329.1-342.5,583.5-673.4,669.6C9035.1,5030.3,953.8,5028.4,795,4986.3z M4696,2414.9V425.2H2706.3H716.5v1863.5c0,1274.2,5.7,1882.6,21,1918.9c26.8,70.8,89.9,139.7,160.7,170.3c45.9,21,411.3,24.9,1928.5,26.8H4696V2414.9z M9146.1,4354.9c28.7-21,70.8-63.1,91.8-91.8c40.2-51.7,40.2-67,45.9-1945.7l3.8-1892.2H7298H5308.2v1989.7v1989.7l1892.2-3.8C9079.1,4395.1,9094.5,4395.1,9146.1,4354.9z M4696-2176.8v-1989.7l-1892.2,3.8c-1878.8,5.7-1894.1,5.7-1945.7,45.9c-28.7,21.1-70.8,63.1-91.8,91.8c-40.2,51.6-40.2,67-45.9,1945.7L716.5-187h1989.7H4696V-2176.8z M9283.9-2079.2c-5.7-1878.8-5.7-1894.1-45.9-1945.7c-21.1-28.7-63.2-70.8-91.8-91.8c-51.6-40.2-67-40.2-1945.7-45.9l-1892.2-3.8v1989.7V-187H7298h1989.7L9283.9-2079.2z"/><path d="M2581.9,3612.6c-70.8-32.5-133.9-99.5-160.7-170.3c-11.5-30.6-21.1-197.1-21.1-386.5V2723l-361.6-5.7c-396-5.7-413.3-11.5-507-137.7c-55.5-74.6-55.5-254.5,0-329.1c93.8-126.3,111-132,505.1-137.7l361.6-5.7l5.7-361.6c5.7-394.1,11.5-411.3,137.8-505.1c74.6-55.5,254.5-55.5,329.1,0c126.3,93.7,132,111,137.7,505.1l5.7,361.6l361.6,5.7c394.1,5.7,411.3,11.5,505.1,137.7c55.5,74.6,55.5,254.5,0,329.1c-93.7,126.3-111,132-505.1,137.7l-361.6,5.7l-5.7,361.6c-5.7,394.1-11.5,411.3-133.9,503.2C2809.6,3635.6,2658.4,3649,2581.9,3612.6z"/><path d="M6331.8,3536.1c-128.2-55.5-200.9-200.9-172.2-350.1c11.5-61.2,67-128.2,359.7-420.9l346.3-350.1l-346.3-348.2c-373.1-376.9-390.3-403.7-359.7-564.4c17.2-93.7,132-208.5,225.8-225.8c160.7-30.6,187.5-13.4,564.4,359.7l348.2,346.3l350.1-346.3c375-373.1,401.8-390.3,562.5-359.7c93.7,17.2,208.5,132,225.8,225.8c30.6,160.7,13.4,187.5-359.7,564.4l-346.3,348.2l346.3,350.1c373.1,375,390.3,401.8,359.7,562.5c-17.2,93.7-132,208.5-225.8,225.8c-160.7,30.6-187.5,13.4-564.4-359.7L7298,2845.4l-340.5,338.6c-185.6,185.6-363.5,348.2-392.2,359.7C6492.5,3570.5,6402.6,3566.7,6331.8,3536.1z"/><path d="M2581.9-979.1c-193.2-84.2-239.2-340.6-88-491.7c124.4-124.4,300.4-124.4,424.7,0C3155.9-1233.6,2889.9-845.2,2581.9-979.1z"/><path d="M1663.6-1897.4c-128.2-55.5-200.9-202.8-174.1-346.3c17.2-89.9,112.9-195.1,199-220c47.8-15.3,399.9-19.1,1059.9-15.3c964.2,5.7,989.1,7.7,1040.8,45.9c101.4,74.6,132,135.8,132,256.4c0,120.5-30.6,181.8-132,256.4c-51.7,40.2-76.5,40.2-1059.9,44C1919.9-1872.6,1709.5-1876.4,1663.6-1897.4z"/><path d="M2581.9-2815.8c-193.2-84.2-239.2-340.5-88-491.7c124.4-124.4,300.4-124.4,424.7,0C3155.9-3070.2,2889.9-2681.9,2581.9-2815.8z"/><path d="M6255.3-1285.2c-128.2-55.5-200.9-202.8-174.1-346.3c17.2-89.9,112.9-195.1,199-220c47.8-15.3,399.9-19.1,1059.9-15.3c964.2,5.7,989.1,7.7,1040.8,45.9c101.4,74.6,132,135.8,132,256.4s-30.6,181.8-132,256.4c-51.6,40.2-76.5,40.2-1059.9,44C6511.6-1260.3,6301.2-1264.2,6255.3-1285.2z"/><path d="M6255.3-2509.6c-128.2-55.5-200.9-202.8-174.1-346.3c17.2-89.9,112.9-195.1,199-220c47.8-15.3,399.9-19.1,1059.9-15.3c964.2,5.7,989.1,7.6,1040.8,45.9c101.4,74.6,132,135.8,132,256.4s-30.6,181.8-132,256.4c-51.6,40.2-76.5,40.2-1059.9,44C6511.6-2484.8,6301.2-2488.6,6255.3-2509.6z"/></g></g>
</svg>