<?xml version="1.0" encoding="iso-8859-1"?>
<!-- Generator: Adobe Illustrator 19.0.0, SVG Export Plug-In . SVG Version: 6.00 Build 0)  -->
<svg version="1.1" id="Capa_1" xmlns="http://www.w3.org/2000/svg" xmlns:xlink="http://www.w3.org/1999/xlink" x="0px" y="0px"
	 viewBox="0 0 512 512" style="enable-background:new 0 0 512 512;" xml:space="preserve">
<g>
	<g>
		<path d="M276.636,0.905c-1.138-0.577-2.393-0.887-3.669-0.905h-34.133c-1.286,0.019-2.551,0.334-3.696,0.922
			C102.295,11.747,0,122.717,0,256c0,133.283,102.295,244.253,235.138,255.078c1.144,0.587,2.409,0.902,3.695,0.922h34.133
			c1.276-0.018,2.53-0.327,3.668-0.904C409.574,500.382,511.999,389.371,512,256S409.575,11.618,276.636,0.905z M247.366,17.286
			c2.872-0.103,5.741-0.219,8.638-0.219c2.827,0,5.626,0.116,8.429,0.214v18.694c0.24,10.548-6.839,19.864-17.067,22.457V17.286z
			 M247.366,75.931c6.09-1.148,11.892-3.496,17.067-6.906v43.75c0.24,10.548-6.839,19.863-17.067,22.457V75.931z M247.366,152.731
			c6.09-1.148,11.892-3.496,17.067-6.906v50.442c-5.755,0.132-11.501-0.547-17.067-2.018V152.731z M236.133,208.625
			c9.062,3.303,18.657,4.899,28.3,4.708c3.059,0,5.83-0.15,8.484-0.352l0.049,0.01l0.076-0.015
			c5.558-0.372,11.062-1.33,16.419-2.858c-2.521,11.813-12.948,20.263-25.028,20.281h-4.521
			c-12.707-0.035-23.48-9.355-25.342-21.925l-0.054-0.383C235.053,208.268,235.588,208.444,236.133,208.625z M230.3,493.531
			C109.075,480.266,17.226,377.948,17.07,256C17.226,134.052,109.075,31.734,230.3,18.469v170.808
			c-5.622-1.09-11.34-1.608-17.067-1.544c-10.132,0.06-20.123,2.375-29.249,6.777c-0.774-0.29-1.559-0.586-2.455-0.927
			c-15.458-5.85-44.233-16.742-66.238-6.758c-9.942,4.62-17.536,13.138-20.992,23.542c-7.488,22.306-24.193,40.324-45.87,49.475
			c-2.355,0.776-4.257,2.538-5.209,4.827c-0.953,2.289-0.863,4.88,0.247,7.098c5.844,10.096,16.812,16.109,28.467,15.608
			c5.449-0.064,10.853-1.01,16-2.8c20.199-6.458,37.744-19.321,49.979-36.643c5.586,2.325,11.398,4.067,17.342,5.198
			c0.082,0.374,0.172,0.756,0.262,1.138L108.75,297.5c-4.574,4.232-6.48,10.62-4.971,16.667l12.608,50.45
			c2.844,11.399,13.089,19.395,24.838,19.383h10.088c3.581,10.215,13.221,17.057,24.045,17.067h20.808
			c2.448,0.001,4.778-1.05,6.398-2.885c1.62-1.835,2.373-4.278,2.069-6.706l-8.075-64.592l30.025-36.026
			c0.539,0.458,1.134,0.845,1.771,1.151c0.635,0.251,1.305,0.424,1.946,0.661V493.531z M136.687,326.333l10.147,40.6h-5.609
			c-3.916,0.004-7.33-2.659-8.279-6.458l-12.608-50.442l41.959-38.792c0.928,1.499,1.946,2.939,3.049,4.313l-27.617,44.188
			C136.503,321.707,136.127,324.086,136.687,326.333z M153.721,235.338c-5.047-1.174-9.884-3.112-14.346-5.746
			c-3.141-1.978-7.208-1.659-10.002,0.786l-0.61-0.303c-0.371,0.733-0.729,1.483-1.4,2.567
			c-9.921,17.126-25.925,29.889-44.829,35.75c-4.982,1.955-10.427,2.415-15.667,1.325c20.175-12.294,35.51-31.151,43.433-53.408
			c1.901-6.123,6.27-11.176,12.054-13.942c12.545-5.72,31.45-0.534,44.722,4.114C159.322,214.197,154.585,224.433,153.721,235.338z
			 M264.433,494.719c-2.803,0.098-5.603,0.214-8.429,0.214c-2.897,0-5.766-0.117-8.638-0.219v-43.317
			c6.09-1.148,11.892-3.496,17.067-6.906V494.719z M264.433,411.442c0.24,10.548-6.839,19.863-17.067,22.457v-59.302
			c6.09-1.148,11.892-3.496,17.067-6.906V411.442z M264.433,334.642c0.24,10.548-6.839,19.864-17.067,22.457v-59.89
			c5.638,0.959,11.347,1.447,17.067,1.458V334.642z M274.616,275.042c-1.881,1.594-2.968,3.934-2.972,6.399
			c-11.514,0.628-23.048-0.823-34.048-4.282c2.047-3.526,1.275-8.012-1.834-10.65c-3.622-3.011-8.997-2.522-12.017,1.092
			l-42.667,51.2c-1.514,1.816-2.206,4.179-1.913,6.525L186.5,384h-11.142c-3.916,0.004-7.33-2.659-8.279-6.458l-12.954-51.825
			l35.412-56.658c2.461-3.896,1.366-9.043-2.467-11.599c-3.833-2.557-9.006-1.59-11.657,2.179c-0.852-1.695-1.585-3.448-2.192-5.246
			c-1.583-5.008-2.476-10.209-2.654-15.458c0.366-11.688,7.106-22.236,17.558-27.479c0.243-0.112,0.459-0.243,0.69-0.377
			c7.491-4.091,15.883-6.249,24.418-6.278c1.279,0,2.458,0.03,3.593,0.072l0.844,5.995c3.086,20.971,21.045,36.531,42.242,36.6
			h4.521c23.553-0.028,42.639-19.114,42.667-42.667V197c3.082-18.604,15.561-67.273,37.95-78.433
			c16.365-7.102,35.111-6.131,50.654,2.625L386.4,130.5c-2.948,2.949-3.334,7.597-0.913,10.991l0,0l31.05,43.5
			c1.46,2.052,1.951,4.64,1.342,7.083c-0.586,2.405-2.211,4.426-4.433,5.517l-9.554,4.783l-12.888-19.367
			c-1.411-2.102-3.676-3.476-6.192-3.758c-7.643-1.108-14.792-4.437-20.558-9.575c-2.935-2.825-5.127-6.332-6.379-10.209
			c-0.953-2.897-3.378-5.065-6.364-5.689c-2.985-0.623-6.076,0.393-8.108,2.667c-2.032,2.273-2.697,5.459-1.745,8.355
			c1.734,5.246,4.49,10.096,8.108,14.271v34.262c0.001,1.084,0.208,2.159,0.608,3.167c3.888,9.717,12.575,39.85,1.888,50.533
			c-3.606,3.598-8.154,6.105-13.121,7.233c-0.078,0.019-0.296,0.07-0.627,0.138l-2.603-5.171c-2.117-4.209-7.245-5.905-11.454-3.787
			c-4.209,2.117-5.905,7.245-3.788,11.454l5.344,10.618l0.123,0.245l14.737,29.278l-11.408,64.992l-7.367-1.85
			c-2.305-0.574-4.265-2.085-5.409-4.167c-1.143-2.082-1.365-4.547-0.613-6.8c0.129-0.386,0.229-0.782,0.3-1.183l7.65-42.25
			c0.449-2.486-0.225-5.042-1.842-6.983l-35.554-42.667C283.615,272.516,278.236,272.027,274.616,275.042z M281.5,493.557v-81.974
			c0.023-0.672,0.104-1.291,0.104-1.984c0-0.183-0.093-0.336-0.104-0.516v-74.3c0.023-0.672,0.104-1.291,0.104-1.984
			c0-0.183-0.093-0.336-0.104-0.516v-34.393c0.328-0.028,0.655-0.046,0.982-0.076l24.043,28.851l-6.842,37.792
			c-2.043,6.709-1.244,13.962,2.211,20.064s9.264,10.52,16.068,12.219l16.254,4.067c0.677,0.172,1.372,0.259,2.071,0.258
			c4.144,0.001,7.689-2.977,8.404-7.058l13.479-76.8c0.317-1.808,0.042-3.669-0.783-5.308L346.3,289.871
			c4.041-1.264,7.881-3.098,11.404-5.446l24.638,17.533l-9.242,27.725c-2.256,6.764-1.588,14.162,1.843,20.412
			c3.431,6.25,9.314,10.785,16.232,12.513l16.254,4.067c0.677,0.172,1.372,0.259,2.071,0.259c3.917,0,7.331-2.666,8.279-6.467
			l17.067-68.267c0.734-2.932-0.142-6.034-2.3-8.15l-62.09-61.008c-1.373-5.029-2.777-9.046-3.623-11.301v-20.168
			c3.85,1.72,7.867,3.039,11.988,3.935l10.858,16.316c4.807,7.126,14.136,9.609,21.85,5.817l9.554-4.783
			c6.688-3.354,11.574-9.466,13.374-16.729c1.8-7.263,0.333-14.949-4.016-21.038l-26.862-37.633l11.954-11.959
			c1.75-1.748,2.655-4.17,2.479-6.638c-0.175-2.467-1.413-4.737-3.392-6.221c-1.563-1.175-38.779-28.542-77.196-9.342
			c-31.167,15.542-43.667,71.867-46.65,87.983c-2.935,1.49-6.054,2.586-9.275,3.261v-81.627c0.023-0.672,0.104-1.291,0.104-1.984
			c0-0.183-0.093-0.336-0.104-0.516v-74.3c0.023-0.672,0.104-1.291,0.104-1.984c0-0.183-0.093-0.336-0.104-0.516V18.443
			C402.891,31.464,494.937,133.912,494.937,256S402.891,480.536,281.5,493.557z M397.379,291.717L397.379,291.717l-27.814-19.791
			c3.266-6.546,4.923-13.776,4.834-21.091l42.705,41.965l-13.813,55.25l-7.979-1.992c-2.305-0.577-4.264-2.09-5.407-4.173
			s-1.365-4.548-0.614-6.802l11.237-33.717C401.716,297.808,400.437,293.89,397.379,291.717z"/>
	</g>
</g>
<g>
</g>
<g>
</g>
<g>
</g>
<g>
</g>
<g>
</g>
<g>
</g>
<g>
</g>
<g>
</g>
<g>
</g>
<g>
</g>
<g>
</g>
<g>
</g>
<g>
</g>
<g>
</g>
<g>
</g>
</svg>
